<svg width="702" height="116" viewBox="0 0 702 116" fill="none" xmlns="http://www.w3.org/2000/svg">
<path d="M44.9328 48.3333L93.194 116H0V0H93.194L44.9328 48.3333ZM40.606 52.6667L6.15746 87.1667V109.833H81.3784L40.606 52.6667Z" fill="black"/>
<path d="M159.706 53.6111L149.887 63.6111V81.2778H143.23V26.2778H149.887V54.6111L177.512 26.2778H186.249L164.365 48.6944L186.499 81.2778H178.511L159.706 53.6111Z" fill="black"/>
<path d="M232.867 66.0278H207.988L202.163 81.2778H195.174L216.558 26.2778H224.463L245.765 81.2778H238.692L232.867 66.0278ZM230.454 59.7778L223.049 40.2778L220.469 32.6111H220.303L217.89 40.0278L210.401 59.7778H230.454Z" fill="black"/>
<path d="M280.892 58.4444H267.745V81.2778H261.088V26.2778H281.89C287.493 26.2778 291.986 27.7222 295.37 30.6111C298.754 33.5 300.446 37.4167 300.446 42.3611C300.446 46.25 299.364 49.5278 297.201 52.1944C295.037 54.8611 292.07 56.6944 288.297 57.6944L303.774 81.2778H295.869L280.892 58.4444ZM267.745 52.1944H281.807C289.573 52.1944 293.456 48.9167 293.456 42.3611C293.456 35.8056 289.573 32.5278 281.807 32.5278H267.745V52.1944Z" fill="black"/>
<path d="M336.856 59.7778V81.2778H330.2V59.7778L310.562 26.2778H318.467L333.528 52.9445L348.589 26.2778H356.494L336.856 59.7778Z" fill="black"/>
<path d="M395.921 66.0278H371.042L365.217 81.2778H358.227L379.612 26.2778H387.517L408.818 81.2778H401.746L395.921 66.0278ZM393.508 59.7778L386.102 40.2778L383.523 32.6111H383.356L380.943 40.0278L373.455 59.7778H393.508Z" fill="black"/>
<path d="M440.617 53.6111L430.799 63.6111V81.2778H424.142V26.2778H430.799V54.6111L458.424 26.2778H467.161L445.277 48.6944L467.411 81.2778H459.422L440.617 53.6111Z" fill="black"/>
<path d="M513.779 66.0278H488.899L483.075 81.2778H476.085L497.47 26.2778H505.375L526.676 81.2778H519.603L513.779 66.0278ZM511.366 59.7778L503.96 40.2778L501.381 32.6111H501.214L498.801 40.0278L491.312 59.7778H511.366Z" fill="black"/>
<path d="M561.803 58.4444H548.656V81.2778H542V26.2778H562.802C568.405 26.2778 572.898 27.7222 576.282 30.6111C579.666 33.5 581.357 37.4167 581.357 42.3611C581.357 46.25 580.276 49.5278 578.112 52.1944C575.949 54.8611 572.981 56.6944 569.209 57.6944L584.686 81.2778H576.781L561.803 58.4444ZM548.656 52.1944H562.719C570.485 52.1944 574.368 48.9167 574.368 42.3611C574.368 35.8056 570.485 32.5278 562.719 32.5278H548.656V52.1944Z" fill="black"/>
<path d="M619.138 25.4444C628.956 25.4444 636.029 29.3333 640.356 37.1111L634.614 41.7778C632.95 38.1111 630.953 35.5278 628.623 34.0278C626.349 32.4722 623.215 31.6944 619.221 31.6944C615.005 31.6944 611.677 32.5833 609.236 34.3611C606.85 36.0833 605.658 38.3056 605.658 41.0278C605.658 42.8056 606.129 44.2778 607.072 45.4444C608.015 46.6111 609.568 47.6389 611.732 48.5278C613.951 49.3611 617.002 50.1111 620.885 50.7778C628.152 52 633.283 53.8333 636.279 56.2778C639.33 58.7222 640.855 62.1111 640.855 66.4445C640.855 69.5556 639.967 72.3056 638.192 74.6944C636.473 77.0278 634.004 78.8611 630.787 80.1945C627.569 81.4722 623.853 82.1111 619.637 82.1111C614.09 82.1111 609.347 81.0278 605.408 78.8611C601.525 76.6945 598.557 73.8056 596.505 70.1945L602.246 65.5278C603.744 68.8056 605.935 71.3611 608.82 73.1945C611.76 74.9722 615.421 75.8611 619.803 75.8611C624.13 75.8611 627.569 75.0833 630.121 73.5278C632.673 71.9167 633.949 69.6667 633.949 66.7778C633.949 64.3333 632.839 62.3889 630.62 60.9445C628.401 59.5 624.463 58.2778 618.805 57.2778C611.482 56 606.296 54.1667 603.245 51.7778C600.194 49.3889 598.668 46.0556 598.668 41.7778C598.668 38.8333 599.5 36.1111 601.164 33.6111C602.829 31.1111 605.214 29.1389 608.32 27.6945C611.427 26.1944 615.033 25.4444 619.138 25.4444Z" fill="black"/>
<path d="M689.103 66.0278H664.223L658.398 81.2778H651.409L672.794 26.2778H680.699L702 81.2778H694.927L689.103 66.0278ZM686.69 59.7778L679.284 40.2778L676.704 32.6111H676.538L674.125 40.0278L666.636 59.7778H686.69Z" fill="black"/>
</svg>
